<svg width="41" height="39" viewBox="0 0 41 39" fill="none" xmlns="http://www.w3.org/2000/svg">
<path d="M5.35531 30.183C5.56202 29.6026 5.74585 29.0861 5.92968 28.5696C6.2571 27.6504 6.58137 26.7303 6.9151 25.8142C6.97112 25.661 6.94982 25.5836 6.80623 25.4952C3.48309 23.4513 1.38128 20.5175 0.60494 16.6991C-0.20533 12.7094 0.671213 9.05526 3.18092 5.85841C5.6354 2.73264 8.90567 1.0426 12.871 0.778832C18.0301 0.435297 22.999 3.26729 25.3927 7.86987C26.7363 10.4531 27.2058 13.1895 26.7797 16.0713C26.532 17.7479 25.9671 19.3179 25.1182 20.7868C25.0337 20.9329 24.9501 20.9826 24.7813 20.9463C22.9035 20.5356 21.5173 19.4892 20.6668 17.7566C20.6179 17.6571 20.6155 17.4944 20.6621 17.3933C22.8223 12.7007 20.0364 7.33522 14.9507 6.40412C11.3049 5.73679 7.53444 7.94094 6.31786 11.4497C4.79988 15.8296 7.25357 20.4361 11.727 21.6168C11.8304 21.6444 11.9535 21.7352 11.9976 21.8292C12.9539 23.8525 14.2856 25.5844 15.9969 27.0249C16.0277 27.051 16.0561 27.0802 16.1366 27.1568C15.7145 27.2176 15.3452 27.2831 14.9728 27.3226C13.8643 27.4395 12.7582 27.4127 11.6552 27.2476C11.5921 27.2381 11.4722 27.2958 11.4532 27.3495C10.9049 28.8713 10.366 30.3963 9.82639 31.9213C9.82166 31.9347 9.83034 31.9521 9.83902 32.0081C10.1972 31.8383 10.5459 31.6741 10.8939 31.5074C11.3988 31.2658 11.9258 31.1852 12.475 31.3076C13.5251 31.5422 14.2399 32.3659 14.3614 33.4739C14.4639 34.4066 13.8959 35.3803 12.972 35.8249C11.7254 36.4243 10.4726 37.0127 9.22283 37.6058C8.4244 37.9848 7.62833 38.3679 6.82832 38.7422C5.53283 39.3487 4.16634 38.8575 3.54937 37.5608C2.53791 35.4372 1.52803 33.3128 0.525254 31.186C-0.196651 29.6547 0.589161 28.0302 2.20418 27.6954C3.20459 27.4877 4.28469 28.0129 4.76201 28.9487C4.95846 29.3325 5.13756 29.7274 5.35531 30.183Z" fill="#345CC4"/>
<path d="M31.7766 35.0146C31.2709 35.2326 30.7865 35.4497 30.2957 35.6519C29.7577 35.8746 29.2298 36.1487 28.6705 36.2861C27.5059 36.572 26.3075 35.858 25.9327 34.7287C25.5469 33.567 26.0645 32.3098 27.1635 31.7996C28.0022 31.4102 28.8574 31.0541 29.7048 30.6837C29.7498 30.6639 29.7932 30.6403 29.8571 30.6095C29.8318 30.536 29.8137 30.4665 29.7853 30.401C29.521 29.7881 29.2456 29.18 28.9955 28.5617C28.9056 28.339 28.8133 28.2718 28.5584 28.324C24.9323 29.06 21.5524 28.4172 18.4794 26.3662C15.4355 24.335 13.5452 21.4817 12.824 17.8931C12.125 14.4128 12.7799 11.163 14.6426 8.14781C14.7633 7.95274 14.8746 7.90773 15.0829 7.98354C16.791 8.60269 18.1306 9.67595 19.1011 11.2143C19.1894 11.3541 19.1303 11.4434 19.0687 11.5531C18.3847 12.7575 18.0699 14.0598 18.0865 15.4371C18.1322 19.2847 21.0837 22.5684 24.8889 23.0209C29.2259 23.5366 33.0563 20.5277 33.5818 16.1818C34.0204 12.5569 31.6867 8.54583 27.5706 7.71898C27.4696 7.69845 27.3395 7.60447 27.3024 7.51286C26.4456 5.39953 25.1414 3.64711 23.2179 2.38748C23.1911 2.3701 23.1698 2.34483 23.0956 2.2777C23.5193 2.20426 23.8948 2.11107 24.2751 2.07632C29.3127 1.62143 33.4256 3.35885 36.5286 7.36281C38.0442 9.31898 38.9191 11.5721 39.0998 14.0456C39.4706 19.1338 37.5676 23.1938 33.4611 26.2146C33.3009 26.3323 33.2741 26.4207 33.3538 26.5992C33.6654 27.2894 33.9613 27.9875 34.2729 28.7046C34.7258 28.5096 35.1605 28.3224 35.5944 28.1352C36.0386 27.9441 36.4797 27.7459 36.9262 27.5627C38.1704 27.0533 39.5219 27.6006 40.0568 28.8254C40.5736 30.0093 40.0482 31.385 38.8458 31.9394C38.0363 32.3121 37.211 32.6533 36.3937 33.0087C36.3266 33.0379 36.2619 33.0742 36.1783 33.1161C36.4607 33.7692 36.7329 34.4136 37.0177 35.0517C37.2489 35.5698 37.4114 36.0918 37.3144 36.673C37.1384 37.7305 36.3353 38.5289 35.267 38.6837C34.2532 38.8306 33.2291 38.2754 32.7897 37.3206C32.4898 36.6691 32.2153 36.0065 31.9281 35.3487C31.8831 35.2452 31.8342 35.141 31.7766 35.0146Z" fill="#D531C4"/>
</svg>
