<svg width="36" height="31" viewBox="0 0 36 31" fill="none" xmlns="http://www.w3.org/2000/svg">
<path d="M33.1441 3.03375C31.2805 1.07744 28.7235 0 25.9434 0C23.8653 0 21.9622 0.635887 20.2868 1.88985C19.4414 2.52281 18.6754 3.2972 18 4.20105C17.3249 3.29747 16.5586 2.52281 15.7129 1.88985C14.0378 0.635887 12.1347 0 10.0566 0C7.27652 0 4.71918 1.07744 2.85562 3.03375C1.01431 4.9672 0 7.60857 0 10.4717C0 13.4185 1.13461 16.1159 3.57056 18.961C5.74969 21.5058 8.88162 24.0893 12.5085 27.0807C13.7469 28.1024 15.1507 29.2604 16.6083 30.4938C16.9934 30.8203 17.4875 31 18 31C18.5122 31 19.0066 30.8203 19.3911 30.4944C20.8488 29.2606 22.2534 28.1021 23.4923 27.0799C27.1187 24.089 30.2506 21.5058 32.4297 18.9607C34.8657 16.1159 36 13.4185 36 10.4714C36 7.60857 34.9857 4.9672 33.1441 3.03375Z" fill="#EA2E93"/>
</svg>
