<svg width="40" height="40" viewBox="0 0 40 40" fill="none" xmlns="http://www.w3.org/2000/svg">
<path d="M20 0C31.046 0 40 8.954 40 20C40 31.046 31.046 40 20 40C8.954 40 0 31.046 0 20C0 8.954 8.954 0 20 0ZM20 2.79C15.4356 2.79 11.0582 4.60319 7.83069 7.83069C4.60319 11.0582 2.79 15.4356 2.79 20C2.79 24.5644 4.60319 28.9418 7.83069 32.1693C11.0582 35.3968 15.4356 37.21 20 37.21C24.5644 37.21 28.9418 35.3968 32.1693 32.1693C35.3968 28.9418 37.21 24.5644 37.21 20C37.21 15.4356 35.3968 11.0582 32.1693 7.83069C28.9418 4.60319 24.5644 2.79 20 2.79ZM24.096 6.976C25.3963 7.46765 26.6121 8.15858 27.7 9.024C27.95 9.216 28.19 9.42 28.426 9.638C28.47 9.676 28.508 9.716 28.55 9.758C29.206 10.364 29.802 11.046 30.33 11.778C30.404 11.88 30.482 11.974 30.55 12.072C30.678 12.26 30.798 12.456 30.918 12.652C31.1244 12.9826 31.3146 13.323 31.488 13.672C31.594 13.872 31.688 14.09 31.786 14.302C31.852 14.448 31.926 14.598 31.986 14.754C32.132 15.118 32.262 15.484 32.38 15.858C32.418 15.982 32.448 16.114 32.484 16.238C32.6869 16.9496 32.8307 17.6767 32.914 18.412C32.928 18.544 32.948 18.684 32.958 18.814C32.998 19.244 33.024 19.678 33.024 20.114C33.0214 20.9659 32.9431 21.8159 32.79 22.654C32.762 22.8 32.738 22.948 32.71 23.088C32.63 23.468 32.538 23.84 32.43 24.208C31.412 23.742 30.216 23.056 29.904 22.302C29.336 20.942 27.824 20.262 27.208 18.51C26.194 15.61 27.54 15.686 27.728 13.886C27.816 13.042 27.208 12.866 26.406 13.21C24.534 13.996 23.9 13.694 23.522 12.284C23.144 10.878 23.522 10.486 23.522 10.486C22.246 10.626 22.198 9.072 22.86 8.68C23.32 8.416 23.71 7.606 24.096 6.976ZM18.748 15.594C19.928 15.054 21.018 14.86 20.874 13.932C20.734 13.014 20.402 12.33 18.558 12.33C16.714 12.33 17.518 14.86 16.006 13.35C14.494 11.85 16.336 12.238 17.092 11.896C17.85 11.552 18.606 10.142 17.282 10.042C15.96 9.948 16.242 10.626 15.202 10.242C14.162 9.85 13.69 11.6 13.026 11.356C12.59 11.192 11.42 10.292 10.644 9.406C9.06053 10.7833 7.80696 12.4989 6.976 14.426C7.202 17.04 8.584 18.412 8.584 18.412C8.584 18.412 9.294 20.114 13.55 22.206C13.55 22.206 14.35 22.254 13.406 21.284C12.462 20.31 11.42 19.094 12.602 18.464C13.782 17.826 14.116 17.88 14.4 19.05C14.682 20.218 15.63 19.53 15.722 18.412C15.818 17.298 17.566 16.132 18.748 15.592V15.594ZM17.848 21.474C19.884 21.474 19.694 22.108 21.302 23.524C22.908 24.932 22.058 26.342 21.252 27.414C20.45 28.482 19.74 29.694 19.362 31.89C18.982 34.078 17.99 32.518 17.662 31.984C17.33 31.446 16.81 30.962 16.954 28.724C17.094 26.488 15.58 27.804 15.062 24.884C14.542 21.968 15.818 21.476 17.85 21.476L17.848 21.474ZM27.802 23.402C28.344 23.056 29.642 23.958 29.362 24.908C29.076 25.858 28.18 25.322 27.73 24.908C27.28 24.496 27.256 23.742 27.802 23.402Z" fill="#3C9A56"/>
</svg>
